<svg width="100" height="100" viewBox="0 0 100 100" xmlns="http://www.w3.org/2000/svg">
  <rect x="5" y="5" width="30" height="30" fill="none" stroke="black" stroke-width="8" />
  <rect x="15" y="15" width="10" height="10" fill="black" />
  <rect x="65" y="5" width="30" height="30" fill="none" stroke="black" stroke-width="8" />
  <rect x="75" y="15" width="10" height="10" fill="black" />
  <rect x="5" y="65" width="30" height="30" fill="none" stroke="black" stroke-width="8" />
  <rect x="15" y="75" width="10" height="10" fill="black" />
  <rect x="45" y="10" width="10" height="10" fill="black" />
  <rect x="50" y="25" width="10" height="10" fill="black" />
  <rect x="45" y="45" width="20" height="10" fill="black" />
  <rect x="10" y="45" width="10" height="10" fill="black" />
  <rect x="25" y="50" width="10" height="10" fill="black" />
  <rect x="75" y="45" width="15" height="10" fill="black" />
  <rect x="65" y="60" width="10" height="20" fill="black" />
  <rect x="45" y="75" width="15" height="15" fill="black" />
  <rect x="75" y="75" width="15" height="15" fill="black" />
</svg>
